# Blender 4.0.2
# www.blender.org
mtllib electrical_box.mtl
o Cube
v -0.600000 2.100000 -0.200000
v -0.600000 0.100000 -0.200000
v -1.200000 2.100000 -0.200000
v -1.200000 0.100000 -0.200000
v -0.633947 2.100000 0.200000
v -0.600000 2.100000 0.177369
v -0.623457 2.100000 0.198892
v -0.613993 2.100000 0.195678
v -0.606483 2.100000 0.190671
v -0.601661 2.100000 0.184362
v -0.600000 0.100000 0.177369
v -0.633947 0.100000 0.200000
v -0.601661 0.100000 0.184362
v -0.606483 0.100000 0.190671
v -0.613993 0.100000 0.195678
v -0.623457 0.100000 0.198892
v -1.200000 2.100000 0.177369
v -1.166053 2.100000 0.200000
v -1.198339 2.100000 0.184362
v -1.193517 2.100000 0.190671
v -1.186007 2.100000 0.195678
v -1.176543 2.100000 0.198892
v -1.166053 0.100000 0.200000
v -1.200000 0.100000 0.177369
v -1.176543 0.100000 0.198892
v -1.186007 0.100000 0.195678
v -1.193517 0.100000 0.190671
v -1.198339 0.100000 0.184362
vn -0.0000 -1.0000 -0.0000
vn -0.0000 1.0000 -0.0000
vn -1.0000 -0.0000 -0.0000
vn -0.0000 -0.0000 1.0000
vn -0.0000 -0.0000 -1.0000
vn -0.1050 -0.0000 0.9945
vn -0.3216 -0.0000 0.9469
vn -0.5547 -0.0000 0.8321
vn -0.7945 -0.0000 0.6072
vn -0.9729 -0.0000 0.2311
vn 0.1050 -0.0000 0.9945
vn 0.3216 -0.0000 0.9469
vn 0.5547 -0.0000 0.8321
vn 0.7945 -0.0000 0.6072
vn 0.9729 -0.0000 0.2311
vn 1.0000 -0.0000 -0.0000
vt 0.125000 0.500000
vt 0.375000 0.500000
vt 0.375000 0.735855
vt 0.374308 0.740226
vt 0.372299 0.744169
vt 0.369169 0.747299
vt 0.365226 0.749308
vt 0.360855 0.750000
vt 0.139145 0.750000
vt 0.134774 0.749308
vt 0.130831 0.747299
vt 0.127701 0.744169
vt 0.125692 0.740226
vt 0.125000 0.735855
vt 0.625000 0.500000
vt 0.875000 0.500000
vt 0.875000 0.735855
vt 0.874308 0.740226
vt 0.872299 0.744169
vt 0.869169 0.747299
vt 0.865226 0.749308
vt 0.860855 0.750000
vt 0.639145 0.750000
vt 0.634774 0.749308
vt 0.630831 0.747299
vt 0.627701 0.744169
vt 0.625692 0.740226
vt 0.625000 0.735855
vt 0.375000 0.014145
vt 0.625000 0.014145
vt 0.625000 0.250000
vt 0.375000 0.250000
vt 0.375000 0.764145
vt 0.625000 0.764145
vt 0.625000 0.985855
vt 0.375000 0.985855
vt 0.625000 0.990226
vt 0.375000 0.990226
vt 0.625000 1.000000
vt 0.375000 1.000000
vt 0.375000 0.000000
vt 0.625000 0.000000
vt 0.625000 0.005831
vt 0.375000 0.005831
vt 0.625000 0.009774
vt 0.375000 0.009774
vt 0.375000 0.759774
vt 0.625000 0.759774
vt 0.375000 0.755831
vt 0.625000 0.755831
vt 0.375000 0.744169
vt 0.625000 0.744169
vt 0.375000 0.740226
vt 0.625000 0.740226
s 0
usemtl Material.006
f 4/1/1 2/2/1 11/3/1 13/4/1 14/5/1 15/6/1 16/7/1 12/8/1 23/9/1 25/10/1 26/11/1 27/12/1 28/13/1 24/14/1
f 1/15/2 3/16/2 17/17/2 19/18/2 20/19/2 21/20/2 22/21/2 18/22/2 5/23/2 7/24/2 8/25/2 9/26/2 10/27/2 6/28/2
f 24/29/3 17/30/3 3/31/3 4/32/3
f 12/33/4 5/34/4 18/35/4 23/36/4
f 4/32/5 3/31/5 1/15/5 2/2/5
f 23/36/6 18/35/6 22/37/6 25/38/6
f 25/38/7 22/37/7 21/39/7 26/40/7
f 26/41/8 21/42/8 20/43/8 27/44/8
f 27/44/9 20/43/9 19/45/9 28/46/9
f 28/46/10 19/45/10 17/30/10 24/29/10
f 5/34/11 12/33/11 16/47/11 7/48/11
f 7/48/12 16/47/12 15/49/12 8/50/12
f 8/50/13 15/49/13 14/51/13 9/52/13
f 9/52/14 14/51/14 13/53/14 10/54/14
f 10/54/15 13/53/15 11/3/15 6/28/15
f 2/2/16 1/15/16 6/28/16 11/3/16
o Cube.001
v 0.000000 2.100000 -0.200000
v 0.000000 0.100000 -0.200000
v -0.600000 2.100000 -0.200000
v -0.600000 0.100000 -0.200000
v -0.033947 2.100000 0.200000
v 0.000000 2.100000 0.177369
v -0.023457 2.100000 0.198892
v -0.013993 2.100000 0.195678
v -0.006483 2.100000 0.190671
v -0.001661 2.100000 0.184362
v 0.000000 0.100000 0.177369
v -0.033947 0.100000 0.200000
v -0.001661 0.100000 0.184362
v -0.006483 0.100000 0.190671
v -0.013993 0.100000 0.195678
v -0.023457 0.100000 0.198892
v -0.600000 2.100000 0.177369
v -0.566053 2.100000 0.200000
v -0.598338 2.100000 0.184362
v -0.593517 2.100000 0.190671
v -0.586007 2.100000 0.195678
v -0.576543 2.100000 0.198892
v -0.566053 0.100000 0.200000
v -0.600000 0.100000 0.177369
v -0.576543 0.100000 0.198892
v -0.586007 0.100000 0.195678
v -0.593517 0.100000 0.190671
v -0.598338 0.100000 0.184362
vn -0.0000 -1.0000 -0.0000
vn -0.0000 1.0000 -0.0000
vn -1.0000 -0.0000 -0.0000
vn -0.0000 -0.0000 1.0000
vn -0.0000 -0.0000 -1.0000
vn -0.1050 -0.0000 0.9945
vn -0.3216 -0.0000 0.9469
vn -0.5547 -0.0000 0.8321
vn -0.7945 -0.0000 0.6072
vn -0.9729 -0.0000 0.2311
vn 0.1050 -0.0000 0.9945
vn 0.3216 -0.0000 0.9469
vn 0.5547 -0.0000 0.8321
vn 0.7945 -0.0000 0.6072
vn 0.9729 -0.0000 0.2311
vn 1.0000 -0.0000 -0.0000
vt 0.125000 0.500000
vt 0.375000 0.500000
vt 0.375000 0.735855
vt 0.374308 0.740226
vt 0.372299 0.744169
vt 0.369169 0.747299
vt 0.365226 0.749308
vt 0.360855 0.750000
vt 0.139145 0.750000
vt 0.134774 0.749308
vt 0.130831 0.747299
vt 0.127701 0.744169
vt 0.125692 0.740226
vt 0.125000 0.735855
vt 0.625000 0.500000
vt 0.875000 0.500000
vt 0.875000 0.735855
vt 0.874308 0.740226
vt 0.872299 0.744169
vt 0.869169 0.747299
vt 0.865226 0.749308
vt 0.860855 0.750000
vt 0.639145 0.750000
vt 0.634774 0.749308
vt 0.630831 0.747299
vt 0.627701 0.744169
vt 0.625692 0.740226
vt 0.625000 0.735855
vt 0.375000 0.014145
vt 0.625000 0.014145
vt 0.625000 0.250000
vt 0.375000 0.250000
vt 0.375000 0.764145
vt 0.625000 0.764145
vt 0.625000 0.985855
vt 0.375000 0.985855
vt 0.625000 0.990226
vt 0.375000 0.990226
vt 0.625000 1.000000
vt 0.375000 1.000000
vt 0.375000 0.000000
vt 0.625000 0.000000
vt 0.625000 0.005831
vt 0.375000 0.005831
vt 0.625000 0.009774
vt 0.375000 0.009774
vt 0.375000 0.759774
vt 0.625000 0.759774
vt 0.375000 0.755831
vt 0.625000 0.755831
vt 0.375000 0.744169
vt 0.625000 0.744169
vt 0.375000 0.740226
vt 0.625000 0.740226
s 0
usemtl Material.006
f 32/55/17 30/56/17 39/57/17 41/58/17 42/59/17 43/60/17 44/61/17 40/62/17 51/63/17 53/64/17 54/65/17 55/66/17 56/67/17 52/68/17
f 29/69/18 31/70/18 45/71/18 47/72/18 48/73/18 49/74/18 50/75/18 46/76/18 33/77/18 35/78/18 36/79/18 37/80/18 38/81/18 34/82/18
f 52/83/19 45/84/19 31/85/19 32/86/19
f 40/87/20 33/88/20 46/89/20 51/90/20
f 32/86/21 31/85/21 29/69/21 30/56/21
f 51/90/22 46/89/22 50/91/22 53/92/22
f 53/92/23 50/91/23 49/93/23 54/94/23
f 54/95/24 49/96/24 48/97/24 55/98/24
f 55/98/25 48/97/25 47/99/25 56/100/25
f 56/100/26 47/99/26 45/84/26 52/83/26
f 33/88/27 40/87/27 44/101/27 35/102/27
f 35/102/28 44/101/28 43/103/28 36/104/28
f 36/104/29 43/103/29 42/105/29 37/106/29
f 37/106/30 42/105/30 41/107/30 38/108/30
f 38/108/31 41/107/31 39/57/31 34/82/31
f 30/56/32 29/69/32 34/82/32 39/57/32
o Cube.002
v 0.600000 2.100000 -0.200000
v 0.600000 0.100000 -0.200000
v 0.000000 2.100000 -0.200000
v 0.000000 0.100000 -0.200000
v 0.566053 2.100000 0.200000
v 0.600000 2.100000 0.177369
v 0.576543 2.100000 0.198892
v 0.586007 2.100000 0.195678
v 0.593517 2.100000 0.190671
v 0.598339 2.100000 0.184362
v 0.600000 0.100000 0.177369
v 0.566053 0.100000 0.200000
v 0.598339 0.100000 0.184362
v 0.593517 0.100000 0.190671
v 0.586007 0.100000 0.195678
v 0.576543 0.100000 0.198892
v 0.000000 2.100000 0.177369
v 0.033947 2.100000 0.200000
v 0.001662 2.100000 0.184362
v 0.006483 2.100000 0.190671
v 0.013993 2.100000 0.195678
v 0.023457 2.100000 0.198892
v 0.033947 0.100000 0.200000
v 0.000000 0.100000 0.177369
v 0.023457 0.100000 0.198892
v 0.013993 0.100000 0.195678
v 0.006483 0.100000 0.190671
v 0.001662 0.100000 0.184362
vn -0.0000 -1.0000 -0.0000
vn -0.0000 1.0000 -0.0000
vn -1.0000 -0.0000 -0.0000
vn -0.0000 -0.0000 1.0000
vn -0.0000 -0.0000 -1.0000
vn -0.1050 -0.0000 0.9945
vn -0.3216 -0.0000 0.9469
vn -0.5547 -0.0000 0.8321
vn -0.7945 -0.0000 0.6072
vn -0.9729 -0.0000 0.2311
vn 0.1050 -0.0000 0.9945
vn 0.3216 -0.0000 0.9469
vn 0.5547 -0.0000 0.8321
vn 0.7945 -0.0000 0.6072
vn 0.9729 -0.0000 0.2311
vn 1.0000 -0.0000 -0.0000
vt 0.125000 0.500000
vt 0.375000 0.500000
vt 0.375000 0.735855
vt 0.374308 0.740226
vt 0.372299 0.744169
vt 0.369169 0.747299
vt 0.365226 0.749308
vt 0.360855 0.750000
vt 0.139145 0.750000
vt 0.134774 0.749308
vt 0.130831 0.747299
vt 0.127701 0.744169
vt 0.125692 0.740226
vt 0.125000 0.735855
vt 0.625000 0.500000
vt 0.875000 0.500000
vt 0.875000 0.735855
vt 0.874308 0.740226
vt 0.872299 0.744169
vt 0.869169 0.747299
vt 0.865226 0.749308
vt 0.860855 0.750000
vt 0.639145 0.750000
vt 0.634774 0.749308
vt 0.630831 0.747299
vt 0.627701 0.744169
vt 0.625692 0.740226
vt 0.625000 0.735855
vt 0.375000 0.014145
vt 0.625000 0.014145
vt 0.625000 0.250000
vt 0.375000 0.250000
vt 0.375000 0.764145
vt 0.625000 0.764145
vt 0.625000 0.985855
vt 0.375000 0.985855
vt 0.625000 0.990226
vt 0.375000 0.990226
vt 0.625000 1.000000
vt 0.375000 1.000000
vt 0.375000 0.000000
vt 0.625000 0.000000
vt 0.625000 0.005831
vt 0.375000 0.005831
vt 0.625000 0.009774
vt 0.375000 0.009774
vt 0.375000 0.759774
vt 0.625000 0.759774
vt 0.375000 0.755831
vt 0.625000 0.755831
vt 0.375000 0.744169
vt 0.625000 0.744169
vt 0.375000 0.740226
vt 0.625000 0.740226
s 0
usemtl Material.006
f 60/109/33 58/110/33 67/111/33 69/112/33 70/113/33 71/114/33 72/115/33 68/116/33 79/117/33 81/118/33 82/119/33 83/120/33 84/121/33 80/122/33
f 57/123/34 59/124/34 73/125/34 75/126/34 76/127/34 77/128/34 78/129/34 74/130/34 61/131/34 63/132/34 64/133/34 65/134/34 66/135/34 62/136/34
f 80/137/35 73/138/35 59/139/35 60/140/35
f 68/141/36 61/142/36 74/143/36 79/144/36
f 60/140/37 59/139/37 57/123/37 58/110/37
f 79/144/38 74/143/38 78/145/38 81/146/38
f 81/146/39 78/145/39 77/147/39 82/148/39
f 82/149/40 77/150/40 76/151/40 83/152/40
f 83/152/41 76/151/41 75/153/41 84/154/41
f 84/154/42 75/153/42 73/138/42 80/137/42
f 61/142/43 68/141/43 72/155/43 63/156/43
f 63/156/44 72/155/44 71/157/44 64/158/44
f 64/158/45 71/157/45 70/159/45 65/160/45
f 65/160/46 70/159/46 69/161/46 66/162/46
f 66/162/47 69/161/47 67/111/47 62/136/47
f 58/110/48 57/123/48 62/136/48 67/111/48
o Cube.003
v 1.200000 2.100000 -0.200000
v 1.200000 0.100000 -0.200000
v 0.600000 2.100000 -0.200000
v 0.600000 0.100000 -0.200000
v 1.166053 2.100000 0.200000
v 1.200000 2.100000 0.177369
v 1.176543 2.100000 0.198892
v 1.186007 2.100000 0.195678
v 1.193517 2.100000 0.190671
v 1.198339 2.100000 0.184362
v 1.200000 0.100000 0.177369
v 1.166053 0.100000 0.200000
v 1.198339 0.100000 0.184362
v 1.193517 0.100000 0.190671
v 1.186007 0.100000 0.195678
v 1.176543 0.100000 0.198892
v 0.600000 2.100000 0.177369
v 0.633947 2.100000 0.200000
v 0.601662 2.100000 0.184362
v 0.606483 2.100000 0.190671
v 0.613994 2.100000 0.195678
v 0.623457 2.100000 0.198892
v 0.633947 0.100000 0.200000
v 0.600000 0.100000 0.177369
v 0.623457 0.100000 0.198892
v 0.613994 0.100000 0.195678
v 0.606483 0.100000 0.190671
v 0.601662 0.100000 0.184362
vn -0.0000 -1.0000 -0.0000
vn -0.0000 1.0000 -0.0000
vn -1.0000 -0.0000 -0.0000
vn -0.0000 -0.0000 1.0000
vn -0.0000 -0.0000 -1.0000
vn -0.1050 -0.0000 0.9945
vn -0.3216 -0.0000 0.9469
vn -0.5547 -0.0000 0.8321
vn -0.7945 -0.0000 0.6072
vn -0.9729 -0.0000 0.2311
vn 0.1050 -0.0000 0.9945
vn 0.3216 -0.0000 0.9469
vn 0.5547 -0.0000 0.8321
vn 0.7945 -0.0000 0.6072
vn 0.9729 -0.0000 0.2311
vn 1.0000 -0.0000 -0.0000
vt 0.125000 0.500000
vt 0.375000 0.500000
vt 0.375000 0.735855
vt 0.374308 0.740226
vt 0.372299 0.744169
vt 0.369169 0.747299
vt 0.365226 0.749308
vt 0.360855 0.750000
vt 0.139145 0.750000
vt 0.134774 0.749308
vt 0.130831 0.747299
vt 0.127701 0.744169
vt 0.125692 0.740226
vt 0.125000 0.735855
vt 0.625000 0.500000
vt 0.875000 0.500000
vt 0.875000 0.735855
vt 0.874308 0.740226
vt 0.872299 0.744169
vt 0.869169 0.747299
vt 0.865226 0.749308
vt 0.860855 0.750000
vt 0.639145 0.750000
vt 0.634774 0.749308
vt 0.630831 0.747299
vt 0.627701 0.744169
vt 0.625692 0.740226
vt 0.625000 0.735855
vt 0.375000 0.014145
vt 0.625000 0.014145
vt 0.625000 0.250000
vt 0.375000 0.250000
vt 0.375000 0.764145
vt 0.625000 0.764145
vt 0.625000 0.985855
vt 0.375000 0.985855
vt 0.625000 0.990226
vt 0.375000 0.990226
vt 0.625000 1.000000
vt 0.375000 1.000000
vt 0.375000 0.000000
vt 0.625000 0.000000
vt 0.625000 0.005831
vt 0.375000 0.005831
vt 0.625000 0.009774
vt 0.375000 0.009774
vt 0.375000 0.759774
vt 0.625000 0.759774
vt 0.375000 0.755831
vt 0.625000 0.755831
vt 0.375000 0.744169
vt 0.625000 0.744169
vt 0.375000 0.740226
vt 0.625000 0.740226
s 0
usemtl Material.006
f 88/163/49 86/164/49 95/165/49 97/166/49 98/167/49 99/168/49 100/169/49 96/170/49 107/171/49 109/172/49 110/173/49 111/174/49 112/175/49 108/176/49
f 85/177/50 87/178/50 101/179/50 103/180/50 104/181/50 105/182/50 106/183/50 102/184/50 89/185/50 91/186/50 92/187/50 93/188/50 94/189/50 90/190/50
f 108/191/51 101/192/51 87/193/51 88/194/51
f 96/195/52 89/196/52 102/197/52 107/198/52
f 88/194/53 87/193/53 85/177/53 86/164/53
f 107/198/54 102/197/54 106/199/54 109/200/54
f 109/200/55 106/199/55 105/201/55 110/202/55
f 110/203/56 105/204/56 104/205/56 111/206/56
f 111/206/57 104/205/57 103/207/57 112/208/57
f 112/208/58 103/207/58 101/192/58 108/191/58
f 89/196/59 96/195/59 100/209/59 91/210/59
f 91/210/60 100/209/60 99/211/60 92/212/60
f 92/212/61 99/211/61 98/213/61 93/214/61
f 93/214/62 98/213/62 97/215/62 94/216/62
f 94/216/63 97/215/63 95/165/63 90/190/63
f 86/164/64 85/177/64 90/190/64 95/165/64
o Cube.004
v -0.100000 1.450000 0.200000
v -0.100000 0.750000 0.200000
v -0.500000 1.450000 0.200000
v -0.500000 0.750000 0.200000
v -0.122631 1.450000 0.400000
v -0.100000 1.450000 0.388684
v -0.115638 1.450000 0.399446
v -0.109329 1.450000 0.397839
v -0.104322 1.450000 0.395336
v -0.101108 1.450000 0.392181
v -0.100000 0.750000 0.388684
v -0.122631 0.750000 0.400000
v -0.101108 0.750000 0.392181
v -0.104322 0.750000 0.395336
v -0.109329 0.750000 0.397839
v -0.115638 0.750000 0.399446
v -0.500000 1.450000 0.388684
v -0.477369 1.450000 0.400000
v -0.498892 1.450000 0.392181
v -0.495678 1.450000 0.395336
v -0.490671 1.450000 0.397839
v -0.484362 1.450000 0.399446
v -0.477369 0.750000 0.400000
v -0.500000 0.750000 0.388684
v -0.484362 0.750000 0.399446
v -0.490671 0.750000 0.397839
v -0.495678 0.750000 0.395336
v -0.498892 0.750000 0.392181
v -0.100000 1.216667 0.200000
v -0.100000 0.983333 0.200000
v -0.500000 1.216667 0.200000
v -0.500000 0.983333 0.200000
v -0.477369 0.983333 0.400000
v -0.477369 1.216667 0.400000
v -0.484362 1.216667 0.399446
v -0.484362 0.983333 0.399446
v -0.490671 1.216667 0.397839
v -0.490671 0.983333 0.397839
v -0.495678 1.216667 0.395336
v -0.495678 0.983333 0.395336
v -0.498892 1.216667 0.392181
v -0.498892 0.983333 0.392181
v -0.500000 1.216667 0.388684
v -0.500000 0.983333 0.388684
v -0.122631 1.216667 0.400000
v -0.122631 0.983333 0.400000
v -0.115638 0.983333 0.399446
v -0.115638 1.216667 0.399446
v -0.109329 0.983333 0.397839
v -0.109329 1.216667 0.397839
v -0.104322 0.983333 0.395336
v -0.104322 1.216667 0.395336
v -0.101108 0.983333 0.392181
v -0.101108 1.216667 0.392181
v -0.100000 0.983333 0.388684
v -0.100000 1.216667 0.388684
vn -0.0000 -1.0000 -0.0000
vn -0.0000 1.0000 -0.0000
vn -1.0000 -0.0000 -0.0000
vn -0.0000 -0.0000 1.0000
vn -0.0000 -0.0000 -1.0000
vn -0.0789 -0.0000 0.9969
vn -0.2469 -0.0000 0.9690
vn -0.4472 -0.0000 0.8944
vn -0.7004 -0.0000 0.7137
vn -0.9533 -0.0000 0.3020
vn 0.0789 -0.0000 0.9969
vn 0.2469 -0.0000 0.9690
vn 0.4472 -0.0000 0.8944
vn 0.7004 -0.0000 0.7137
vn 0.9533 -0.0000 0.3020
vn 1.0000 -0.0000 -0.0000
vt 0.125000 0.500000
vt 0.375000 0.500000
vt 0.375000 0.735855
vt 0.374308 0.740226
vt 0.372299 0.744169
vt 0.369169 0.747299
vt 0.365226 0.749308
vt 0.360855 0.750000
vt 0.139145 0.750000
vt 0.134774 0.749308
vt 0.130831 0.747299
vt 0.127701 0.744169
vt 0.125692 0.740226
vt 0.125000 0.735855
vt 0.625000 0.500000
vt 0.875000 0.500000
vt 0.875000 0.735855
vt 0.874308 0.740226
vt 0.872299 0.744169
vt 0.869169 0.747299
vt 0.865226 0.749308
vt 0.860855 0.750000
vt 0.639145 0.750000
vt 0.634774 0.749308
vt 0.630831 0.747299
vt 0.627701 0.744169
vt 0.625692 0.740226
vt 0.625000 0.735855
vt 0.541667 0.014145
vt 0.625000 0.014145
vt 0.625000 0.250000
vt 0.541667 0.250000
vt 0.541667 0.764144
vt 0.625000 0.764145
vt 0.625000 0.985855
vt 0.541667 0.985855
vt 0.541667 0.500000
vt 0.625000 0.990226
vt 0.541667 0.990226
vt 0.625000 1.000000
vt 0.541667 1.000000
vt 0.541667 0.000000
vt 0.625000 0.000000
vt 0.625000 0.005831
vt 0.541667 0.005831
vt 0.625000 0.009774
vt 0.541667 0.009774
vt 0.458333 0.764145
vt 0.375000 0.764145
vt 0.375000 0.759774
vt 0.458333 0.759774
vt 0.375000 0.755831
vt 0.458333 0.755831
vt 0.375000 0.744169
vt 0.458333 0.744169
vt 0.375000 0.740226
vt 0.458333 0.740226
vt 0.458333 0.735855
vt 0.541667 0.735855
vt 0.458333 0.500000
vt 0.625000 0.740226
vt 0.541667 0.740226
vt 0.625000 0.744169
vt 0.541667 0.744169
vt 0.625000 0.755831
vt 0.541667 0.755831
vt 0.625000 0.759774
vt 0.541667 0.759774
vt 0.375000 0.009774
vt 0.458333 0.009774
vt 0.458333 0.014145
vt 0.375000 0.014145
vt 0.375000 0.005831
vt 0.458333 0.005831
vt 0.375000 0.000000
vt 0.458333 0.000000
vt 0.375000 0.990226
vt 0.458333 0.990226
vt 0.458333 1.000000
vt 0.375000 1.000000
vt 0.375000 0.985855
vt 0.458333 0.985855
vt 0.375000 0.250000
vt 0.458333 0.250000
s 0
usemtl Material.006
f 116/217/65 114/218/65 123/219/65 125/220/65 126/221/65 127/222/65 128/223/65 124/224/65 135/225/65 137/226/65 138/227/65 139/228/65 140/229/65 136/230/65
f 113/231/66 115/232/66 129/233/66 131/234/66 132/235/66 133/236/66 134/237/66 130/238/66 117/239/66 119/240/66 120/241/66 121/242/66 122/243/66 118/244/66
f 155/245/67 129/246/67 115/247/67 143/248/67
f 157/249/68 117/250/68 130/251/68 146/252/68
f 143/248/69 115/247/69 113/231/69 141/253/69
f 146/252/70 130/251/70 134/254/70 147/255/70
f 147/255/71 134/254/71 133/256/71 149/257/71
f 149/258/72 133/259/72 132/260/72 151/261/72
f 151/261/73 132/260/73 131/262/73 153/263/73
f 153/263/74 131/262/74 129/246/74 155/245/74
f 158/264/75 124/265/75 128/266/75 159/267/75
f 159/267/76 128/266/76 127/268/76 161/269/76
f 161/269/77 127/268/77 126/270/77 163/271/77
f 163/271/78 126/270/78 125/272/78 165/273/78
f 165/273/79 125/272/79 123/219/79 167/274/79
f 141/253/80 113/231/80 118/244/80 168/275/80
f 114/218/80 142/276/80 167/274/80 123/219/80
f 142/276/80 141/253/80 168/275/80 167/274/80
f 122/277/79 166/278/79 168/275/79 118/244/79
f 166/278/79 165/273/79 167/274/79 168/275/79
f 121/279/78 164/280/78 166/278/78 122/277/78
f 164/280/78 163/271/78 165/273/78 166/278/78
f 120/281/77 162/282/77 164/280/77 121/279/77
f 162/282/77 161/269/77 163/271/77 164/280/77
f 119/283/76 160/284/76 162/282/76 120/281/76
f 160/284/76 159/267/76 161/269/76 162/282/76
f 117/250/75 157/249/75 160/284/75 119/283/75
f 157/249/75 158/264/75 159/267/75 160/284/75
f 140/285/74 154/286/74 156/287/74 136/288/74
f 154/286/74 153/263/74 155/245/74 156/287/74
f 139/289/73 152/290/73 154/286/73 140/285/73
f 152/290/73 151/261/73 153/263/73 154/286/73
f 138/291/72 150/292/72 152/290/72 139/289/72
f 150/292/72 149/258/72 151/261/72 152/290/72
f 137/293/71 148/294/71 150/295/71 138/296/71
f 148/294/71 147/255/71 149/257/71 150/295/71
f 135/297/70 145/298/70 148/294/70 137/293/70
f 145/298/70 146/252/70 147/255/70 148/294/70
f 116/299/69 144/300/69 142/276/69 114/218/69
f 144/300/69 143/248/69 141/253/69 142/276/69
f 124/265/68 158/264/68 145/298/68 135/297/68
f 136/288/67 156/287/67 144/300/67 116/299/67
f 156/287/67 155/245/67 143/248/67 144/300/67
usemtl Material.005
f 158/264/68 157/249/68 146/252/68 145/298/68
o Cube.005
v -1.200000 0.000000 0.150000
v -1.200000 0.100000 0.150000
v -1.200000 0.000000 -0.200000
v -1.200000 0.100000 -0.200000
v 1.200000 0.000000 0.150000
v 1.200000 0.100000 0.150000
v 1.200000 0.000000 -0.200000
v 1.200000 0.100000 -0.200000
vn -1.0000 -0.0000 -0.0000
vn -0.0000 -0.0000 -1.0000
vn 1.0000 -0.0000 -0.0000
vn -0.0000 -0.0000 1.0000
vn -0.0000 -1.0000 -0.0000
vn -0.0000 1.0000 -0.0000
vt 0.375000 0.000000
vt 0.625000 0.000000
vt 0.625000 0.250000
vt 0.375000 0.250000
vt 0.625000 0.500000
vt 0.375000 0.500000
vt 0.625000 0.750000
vt 0.375000 0.750000
vt 0.625000 1.000000
vt 0.375000 1.000000
vt 0.125000 0.500000
vt 0.125000 0.750000
vt 0.875000 0.500000
vt 0.875000 0.750000
s 0
usemtl Material.005
f 169/301/81 170/302/81 172/303/81 171/304/81
f 171/304/82 172/303/82 176/305/82 175/306/82
f 175/306/83 176/305/83 174/307/83 173/308/83
f 173/308/84 174/307/84 170/309/84 169/310/84
f 171/311/85 175/306/85 173/308/85 169/312/85
f 176/305/86 172/313/86 170/314/86 174/307/86
