# Blender 4.0.2
# www.blender.org
mtllib blue_cabinet.mtl
o Cube
v 0.300000 0.000000 0.450000
v 0.300000 1.700000 0.450000
v 0.300000 0.000000 -0.450000
v 0.300000 1.700000 -0.450000
v -0.300000 0.000000 0.000000
v -0.300000 1.700000 0.000000
v 0.300000 0.000000 0.000000
v 0.300000 1.700000 0.000000
v -0.269500 0.000000 0.450000
v -0.300000 0.000000 0.404249
v -0.278925 0.000000 0.447761
v -0.287427 0.000000 0.441262
v -0.294175 0.000000 0.431141
v -0.298507 0.000000 0.418387
v -0.300000 1.700000 0.404249
v -0.269500 1.700000 0.450000
v -0.298507 1.700000 0.418387
v -0.294175 1.700000 0.431141
v -0.287427 1.700000 0.441262
v -0.278925 1.700000 0.447761
v -0.300000 0.000000 -0.404249
v -0.269500 0.000000 -0.450000
v -0.298507 0.000000 -0.418387
v -0.294175 0.000000 -0.431141
v -0.287427 0.000000 -0.441262
v -0.278925 0.000000 -0.447761
v -0.269500 1.700000 -0.450000
v -0.300000 1.700000 -0.404249
v -0.278925 1.700000 -0.447761
v -0.287427 1.700000 -0.441262
v -0.294175 1.700000 -0.431141
v -0.298507 1.700000 -0.418387
v -0.300000 0.795023 0.048350
v -0.361489 0.795023 0.048350
v -0.300000 0.952179 0.048350
v -0.300000 0.795023 0.074886
v -0.361489 0.795023 0.074886
v -0.300000 0.952179 0.074886
v -0.330744 0.795023 0.048350
v -0.330744 0.952179 0.048350
v -0.330744 0.952179 0.074886
v -0.330744 0.795023 0.074886
v -0.300000 0.873601 0.048350
v -0.361489 0.873601 0.048350
v -0.300000 0.873601 0.074886
v -0.361489 0.873601 0.074886
v -0.330744 0.873601 0.074886
v -0.330744 0.873601 0.048350
v -0.361489 0.924524 0.048350
v -0.351728 0.952179 0.048350
v -0.361011 0.933070 0.048350
v -0.359625 0.940779 0.048350
v -0.357465 0.946897 0.048350
v -0.354744 0.950825 0.048350
v -0.351728 0.952179 0.074886
v -0.361489 0.924524 0.074886
v -0.354744 0.950825 0.074886
v -0.357465 0.946897 0.074886
v -0.359625 0.940779 0.074886
v -0.361011 0.933070 0.074886
vn -0.0000 1.0000 -0.0000
vn -0.0000 -1.0000 -0.0000
vn 1.0000 -0.0000 -0.0000
vn -0.0000 -0.0000 -1.0000
vn -1.0000 -0.0000 -0.0000
vn -0.0000 -0.0000 1.0000
vn -0.2311 -0.0000 0.9729
vn -0.6072 -0.0000 0.7945
vn -0.8321 -0.0000 0.5547
vn -0.9469 -0.0000 0.3216
vn -0.9945 -0.0000 0.1050
vn -0.2311 -0.0000 -0.9729
vn -0.6072 -0.0000 -0.7945
vn -0.8321 -0.0000 -0.5547
vn -0.9469 -0.0000 -0.3216
vn -0.9945 -0.0000 -0.1050
vn -0.9984 0.0558 -0.0000
vn -0.9842 0.1770 -0.0000
vn -0.9430 0.3328 -0.0000
vn -0.8220 0.5694 -0.0000
vn -0.4094 0.9123 -0.0000
vt 0.625000 0.500000
vt 0.862292 0.500000
vt 0.866219 0.500622
vt 0.869761 0.502427
vt 0.872573 0.505239
vt 0.874378 0.508781
vt 0.875000 0.512708
vt 0.875000 0.625000
vt 0.625000 0.625000
vt 0.125000 0.512708
vt 0.125622 0.508781
vt 0.127427 0.505239
vt 0.130239 0.502427
vt 0.133781 0.500622
vt 0.137708 0.500000
vt 0.375000 0.500000
vt 0.375000 0.625000
vt 0.125000 0.625000
vt 0.625000 0.750000
vt 0.375000 0.750000
vt 0.137708 0.750000
vt 0.133781 0.749378
vt 0.130239 0.747573
vt 0.127427 0.744761
vt 0.125622 0.741219
vt 0.125000 0.737292
vt 0.875000 0.737292
vt 0.874378 0.741219
vt 0.872573 0.744761
vt 0.869761 0.747573
vt 0.866219 0.749378
vt 0.862292 0.750000
vt 0.375000 0.262708
vt 0.625000 0.262708
vt 0.375000 0.125000
vt 0.625000 0.125000
vt 0.625000 0.237292
vt 0.375000 0.237292
vt 0.625000 0.987292
vt 0.375000 0.987292
vt 0.625000 0.991219
vt 0.375000 0.991219
vt 0.625000 1.000000
vt 0.375000 1.000000
vt 0.375000 0.000000
vt 0.625000 0.000000
vt 0.625000 0.005239
vt 0.375000 0.005239
vt 0.625000 0.008781
vt 0.375000 0.008781
vt 0.625000 0.012708
vt 0.375000 0.012708
vt 0.375000 0.258781
vt 0.625000 0.258781
vt 0.375000 0.255239
vt 0.625000 0.255239
vt 0.375000 0.244761
vt 0.625000 0.244761
vt 0.375000 0.241219
vt 0.625000 0.241219
vt 0.500000 0.500000
vt 0.585316 0.500000
vt 0.597579 0.502153
vt 0.608642 0.508402
vt 0.617421 0.518134
vt 0.623058 0.530398
vt 0.625000 0.543993
vt 0.500000 0.625000
vt 0.500000 0.125000
vt 0.625000 0.206007
vt 0.623058 0.219602
vt 0.617421 0.231865
vt 0.608642 0.241598
vt 0.597579 0.247847
vt 0.585316 0.250000
vt 0.500000 0.250000
vt 0.500000 0.750000
vt 0.500000 1.000000
vt 0.125000 0.750000
vt 0.875000 0.750000
vt 0.500000 0.000000
vt 0.375000 0.250000
vt 0.125000 0.500000
vt 0.875000 0.543993
vt 0.625000 0.543993
vt 0.625000 0.530398
vt 0.875000 0.530398
vt 0.625000 0.518135
vt 0.875000 0.518135
vt 0.875000 0.500000
vt 0.625000 0.250000
vt 0.597579 0.500000
vt 0.597579 0.250000
s 0
usemtl Material.007
f 4/1/1 27/2/1 29/3/1 30/4/1 31/5/1 32/6/1 28/7/1 6/8/1 8/9/1
f 21/10/2 23/11/2 24/12/2 25/13/2 26/14/2 22/15/2 3/16/2 7/17/2 5/18/2
f 7/17/3 8/9/3 2/19/3 1/20/3
f 5/18/2 7/17/2 1/20/2 9/21/2 11/22/2 12/23/2 13/24/2 14/25/2 10/26/2
f 8/9/1 6/8/1 15/27/1 17/28/1 18/29/1 19/30/1 20/31/1 16/32/1 2/19/1
f 22/33/4 27/34/4 4/1/4 3/16/4
f 5/35/5 6/36/5 28/37/5 21/38/5
f 3/16/3 4/1/3 8/9/3 7/17/3
f 1/20/6 2/19/6 16/39/6 9/40/6
f 9/40/7 16/39/7 20/41/7 11/42/7
f 11/42/8 20/41/8 19/43/8 12/44/8
f 12/45/9 19/46/9 18/47/9 13/48/9
f 13/48/10 18/47/10 17/49/10 14/50/10
f 14/50/11 17/49/11 15/51/11 10/52/11
f 27/34/12 22/33/12 26/53/12 29/54/12
f 29/54/13 26/53/13 25/55/13 30/56/13
f 30/56/14 25/55/14 24/57/14 31/58/14
f 31/58/15 24/57/15 23/59/15 32/60/15
f 32/60/16 23/59/16 21/38/16 28/37/16
f 10/52/5 15/51/5 6/36/5 5/35/5
f 43/18/3 45/17/3 36/20/3 33/79/3
f 35/83/3 38/16/3 45/17/3 43/18/3
usemtl Material.008
f 41/61/6 55/62/6 57/63/6 58/64/6 59/65/6 60/66/6 56/67/6 46/9/6 47/68/6
f 48/69/4 44/36/4 49/70/4 51/71/4 52/72/4 53/73/4 54/74/4 50/75/4 40/76/4
f 47/68/6 46/9/6 37/19/6 42/77/6
f 42/77/2 37/19/2 34/43/2 39/78/2
f 46/9/5 44/8/5 34/80/5 37/19/5
f 48/69/3 47/68/3 42/77/3 39/81/3
f 35/82/1 40/76/1 41/61/1 38/16/1
f 43/35/4 48/69/4 40/76/4 35/82/4
f 47/68/2 48/69/2 43/35/2 45/17/2
f 38/16/6 41/61/6 47/68/6 45/17/6
f 40/76/1 50/75/1 55/62/1 41/61/1
f 39/81/4 34/46/4 44/36/4 48/69/4
f 49/84/17 56/85/17 60/86/17 51/87/17
f 51/87/18 60/86/18 59/88/18 52/89/18
f 52/89/19 59/88/19 58/1/19 53/90/19
f 53/91/20 58/1/20 57/92/20 54/93/20
f 54/93/21 57/92/21 55/62/21 50/75/21
f 56/85/5 49/84/5 44/8/5 46/9/5
