# Blender 4.0.2
# www.blender.org
mtllib hazard_lines.mtl
o hazard_lines.001
v 0.287409 0.000001 3.351101
v 0.448575 0.000001 3.351101
v 0.448577 -0.000001 -3.571253
v 0.287409 -0.000001 -3.571253
v -0.530787 0.000001 3.351101
v -0.369621 0.000001 3.351101
v -0.369621 -0.000001 -3.571253
v -0.530787 -0.000001 -3.571253
v 0.335921 0.000001 3.354128
v 0.449877 0.000001 3.240159
v -0.370248 -0.000001 -3.558451
v -0.484203 -0.000001 -3.444482
v 0.445899 -0.000001 -3.437596
v 0.445889 -0.000001 -3.598763
v -0.528523 -0.000001 -3.598704
v -0.528512 -0.000001 -3.437538
v 0.445899 0.000001 3.350153
v 0.445889 0.000001 3.188987
v -0.528523 0.000001 3.189047
v -0.528512 0.000001 3.350213
vn -0.0000 1.0000 -0.0000
s 0
usemtl Material.002
f 1//1 2//1 3//1
f 1//1 3//1 4//1
f 5//1 6//1 7//1
f 5//1 7//1 8//1
f 13//1 14//1 15//1
f 13//1 15//1 16//1
f 17//1 18//1 19//1
f 17//1 19//1 20//1
l 10 9
l 11 12
